# xmcd
# 
# Track frame offsets:
#     182
#     19272
#     49105
#     63342
#     81900
#     105152
#     117585
#     153240
#     194060
# 
# Disc length: 2998
# 
# Revision: 3
# Processed by: cddbd v1.5.2PL0 Copyright (c) Steve Scherf et al.
# Submitted via: fre:ac v1.0.31
# 
DISCID=730bb409
DTITLE=Savoy Brown - Blue Matter
DYEAR=1969
DGENRE=Rock/Pop
TTITLE0=Train To Nowhere
TTITLE1=Tolling Bells
TTITLE2=She's Got A Ring In His Nose And A Ring On Her Hand
TTITLE3=Vicksburg Blues
TTITLE4=Don't Turn Me From Your Door
TTITLE5=Grits Ain't Groceries (All Around The World)
TTITLE6=May Be Wrong
TTITLE7=Louisiana Blues
TTITLE8=It Hurts Me Too
EXTD=
EXTT0=
EXTT1=
EXTT2=
EXTT3=
EXTT4=
EXTT5=
EXTT6=
EXTT7=
EXTT8=
PLAYORDER=
